<svg width="20" height="20" viewBox="0 0 20 20" fill="none" xmlns="http://www.w3.org/2000/svg">
<path d="M11.6667 4.66671C11.6667 4.2 11.6667 3.96664 11.7575 3.78838C11.8374 3.63158 11.9649 3.5041 12.1217 3.4242C12.2999 3.33337 12.5333 3.33337 13 3.33337H15.3333C15.8001 3.33337 16.0334 3.33337 16.2117 3.4242C16.3685 3.5041 16.496 3.63158 16.5758 3.78838C16.6667 3.96664 16.6667 4.2 16.6667 4.66671V7.00004C16.6667 7.46675 16.6667 7.70011 16.5758 7.87837C16.496 8.03517 16.3685 8.16265 16.2117 8.24255C16.0334 8.33337 15.8001 8.33337 15.3333 8.33337H13C12.5333 8.33337 12.2999 8.33337 12.1217 8.24255C11.9649 8.16265 11.8374 8.03517 11.7575 7.87837C11.6667 7.70011 11.6667 7.46675 11.6667 7.00004V4.66671Z" stroke="#5228B6" stroke-width="2" stroke-linecap="round" stroke-linejoin="round"/>
<path d="M3.33334 4.66671C3.33334 4.2 3.33334 3.96664 3.42417 3.78838C3.50407 3.63158 3.63155 3.5041 3.78835 3.4242C3.96661 3.33337 4.19997 3.33337 4.66668 3.33337H7.00001C7.46672 3.33337 7.70008 3.33337 7.87834 3.4242C8.03514 3.5041 8.16262 3.63158 8.24252 3.78838C8.33334 3.96664 8.33334 4.2 8.33334 4.66671V7.00004C8.33334 7.46675 8.33334 7.70011 8.24252 7.87837C8.16262 8.03517 8.03514 8.16265 7.87834 8.24255C7.70008 8.33337 7.46672 8.33337 7.00001 8.33337H4.66668C4.19997 8.33337 3.96661 8.33337 3.78835 8.24255C3.63155 8.16265 3.50407 8.03517 3.42417 7.87837C3.33334 7.70011 3.33334 7.46675 3.33334 7.00004V4.66671Z" stroke="#5228B6" stroke-width="2" stroke-linecap="round" stroke-linejoin="round"/>
<path d="M3.33334 13C3.33334 12.5333 3.33334 12.3 3.42417 12.1217C3.50407 11.9649 3.63155 11.8374 3.78835 11.7575C3.96661 11.6667 4.19997 11.6667 4.66668 11.6667H7.00001C7.46672 11.6667 7.70008 11.6667 7.87834 11.7575C8.03514 11.8374 8.16262 11.9649 8.24252 12.1217C8.33334 12.3 8.33334 12.5333 8.33334 13V15.3334C8.33334 15.8001 8.33334 16.0334 8.24252 16.2117C8.16262 16.3685 8.03514 16.496 7.87834 16.5759C7.70008 16.6667 7.46672 16.6667 7.00001 16.6667H4.66668C4.19997 16.6667 3.96661 16.6667 3.78835 16.5759C3.63155 16.496 3.50407 16.3685 3.42417 16.2117C3.33334 16.0334 3.33334 15.8001 3.33334 15.3334V13Z" stroke="#5228B6" stroke-width="2" stroke-linecap="round" stroke-linejoin="round"/>
<path d="M11.6667 13C11.6667 12.5333 11.6667 12.3 11.7575 12.1217C11.8374 11.9649 11.9649 11.8374 12.1217 11.7575C12.2999 11.6667 12.5333 11.6667 13 11.6667H15.3333C15.8001 11.6667 16.0334 11.6667 16.2117 11.7575C16.3685 11.8374 16.496 11.9649 16.5758 12.1217C16.6667 12.3 16.6667 12.5333 16.6667 13V15.3334C16.6667 15.8001 16.6667 16.0334 16.5758 16.2117C16.496 16.3685 16.3685 16.496 16.2117 16.5759C16.0334 16.6667 15.8001 16.6667 15.3333 16.6667H13C12.5333 16.6667 12.2999 16.6667 12.1217 16.5759C11.9649 16.496 11.8374 16.3685 11.7575 16.2117C11.6667 16.0334 11.6667 15.8001 11.6667 15.3334V13Z" stroke="#5228B6" stroke-width="2" stroke-linecap="round" stroke-linejoin="round"/>
</svg>
