<svg width="146" height="17" viewBox="0 0 146 17" fill="none" xmlns="http://www.w3.org/2000/svg">
<g clip-path="url(#clip0_72_787)">
<path d="M36.6358 4.77931H41.1856V16.5189H46.2447V4.77931H50.7944V0.481201H36.6019V4.77931H36.6358Z" fill="white"/>
<path d="M60.5391 6.60755L58.6037 6.12642C57.5512 5.86981 57.0419 5.51698 57.0419 5.06792C57.0419 4.42641 57.8228 4.07358 59.2489 4.07358C61.0144 4.07358 62.8819 4.71509 64.5116 5.86981V1.31509C62.6442 0.416981 60.7428 0 58.7396 0C54.5633 0 51.9489 1.98868 51.9489 5.16415C51.9489 7.60189 53.4089 9.17358 56.3968 9.9434L58.8414 10.5528C59.8261 10.7774 60.3014 11.1623 60.3014 11.7075C60.3014 12.5094 59.4526 12.9264 57.8907 12.9264C55.8535 12.9264 53.7484 12.1887 52.0507 10.8736V15.4283C54.02 16.4868 56.1251 17 58.4 17C62.6782 17 65.3605 14.9151 65.3605 11.5792C65.3944 9.07736 63.7647 7.40943 60.5391 6.60755Z" fill="white"/>
<path d="M30.0488 10.168C30.0488 11.5152 28.9284 12.5737 27.5023 12.5737C26.0763 12.5737 24.9558 11.5152 24.9558 10.168V0.481201H19.8967V9.81516C19.8967 14.0171 23.0544 17.0001 27.5023 17.0001C31.9502 17.0001 35.1079 14.0171 35.1079 9.81516V0.481201H30.0488V10.168Z" fill="white"/>
<path d="M9.13349 0C4.00651 0 0 3.72075 0 8.5C0 13.2792 4.00651 17 9.13349 17C14.2605 17 18.267 13.2792 18.267 8.5C18.267 3.72075 14.2605 0 9.13349 0ZM9.13349 12.5736C6.92651 12.5736 5.19488 10.7774 5.19488 8.5C5.19488 6.22264 6.92651 4.42641 9.13349 4.42641C11.3405 4.42641 13.0721 6.22264 13.0721 8.5C13.0721 10.7774 11.3405 12.5736 9.13349 12.5736Z" fill="white"/>
<path d="M139.141 12.2208V0.481201H134.082V16.5189H146V12.2208H139.141Z" fill="white"/>
<path d="M123.319 0C121.214 0 119.72 0.481132 117.887 1.73208C116.766 2.40566 116.223 2.63019 115.747 2.63019C115.17 2.63019 114.627 2.40566 113.608 1.73208C111.775 0.481132 110.247 0 108.176 0C103.049 0 99.0424 3.72076 99.0424 8.5C99.0424 13.2792 102.981 17 108.108 17C110.179 17 111.673 16.5189 113.54 15.2679C114.559 14.5623 115.102 14.3698 115.68 14.3698C116.325 14.3698 116.834 14.5943 117.819 15.2679C119.652 16.5189 121.18 17 123.251 17C128.378 17 132.385 13.2792 132.385 8.5C132.385 3.72076 128.412 0 123.319 0ZM123.285 12.4453C122.097 12.4453 120.331 11.7717 119.007 10.8415C117.751 9.9434 116.766 9.55849 115.714 9.55849C114.661 9.55849 113.676 9.9434 112.42 10.8415C111.096 11.7717 109.33 12.4132 108.142 12.4132C105.935 12.4132 104.203 10.6811 104.203 8.46793C104.203 6.25472 105.969 4.52264 108.142 4.52264C109.33 4.52264 111.096 5.16415 112.42 6.09434C113.71 6.99245 114.729 7.37736 115.714 7.37736C116.766 7.37736 117.751 6.99245 119.007 6.09434C120.331 5.16415 122.097 4.49057 123.285 4.49057C125.492 4.49057 127.224 6.22264 127.224 8.43585C127.224 10.6491 125.492 12.4453 123.285 12.4453Z" fill="white"/>
<path d="M92.2516 6.22271H87.1926V0.481201H82.1335V16.5189H87.1926V10.5208H92.2516V16.5189H97.3107V0.481201H92.2516V6.22271Z" fill="white"/>
<path d="M66.413 8.5C66.413 13.4717 70.1819 17 75.5465 17C76.9386 17 78.7042 16.7113 80.0963 16.2623V11.7075C78.9419 12.2849 77.6856 12.5736 76.2935 12.5736C73.5433 12.5736 71.6079 10.9057 71.6079 8.5C71.6079 6.09434 73.5433 4.42641 76.2935 4.42641C77.6177 4.42641 78.874 4.74717 80.0963 5.32453V0.801887C78.7721 0.320755 77.0405 0 75.5465 0C70.1819 0 66.413 3.5283 66.413 8.5Z" fill="white"/>
</g>
<defs>
<clipPath id="clip0_72_787">
<rect width="146" height="17" fill="white"/>
</clipPath>
</defs>
</svg>
