<svg width="14" height="14" viewBox="0 0 14 14" fill="none" xmlns="http://www.w3.org/2000/svg">
<path d="M6.49621 1.78263C6.65053 1.33868 6.72768 1.11671 6.84178 1.05519C6.94052 1.00195 7.05943 1.00195 7.15818 1.05519C7.27227 1.11671 7.34943 1.33868 7.50374 1.78263L8.52392 4.71755C8.56784 4.8439 8.5898 4.90708 8.62938 4.95413C8.66433 4.99569 8.70891 5.02808 8.75924 5.04848C8.81622 5.07158 8.88309 5.07294 9.01683 5.07567L12.1234 5.13897C12.5933 5.14855 12.8282 5.15334 12.922 5.24284C13.0031 5.3203 13.0399 5.43338 13.0198 5.54375C12.9965 5.67127 12.8092 5.81325 12.4347 6.09719L9.95868 7.97439C9.85208 8.0552 9.79878 8.09561 9.76627 8.14778C9.73754 8.19387 9.72051 8.24628 9.71666 8.30045C9.7123 8.36177 9.73167 8.42579 9.7704 8.55383L10.6702 11.5279C10.8063 11.9777 10.8743 12.2027 10.8182 12.3195C10.7696 12.4206 10.6734 12.4905 10.5622 12.5055C10.4337 12.5228 10.2408 12.3885 9.85506 12.1201L7.30461 10.3453C7.19481 10.2689 7.13991 10.2307 7.08024 10.2159C7.02753 10.2028 6.97242 10.2028 6.91971 10.2159C6.86005 10.2307 6.80515 10.2689 6.69535 10.3453L4.1449 12.1201C3.75911 12.3885 3.56622 12.5228 3.43775 12.5055C3.32657 12.4905 3.23037 12.4206 3.18178 12.3195C3.12564 12.2027 3.19369 11.9777 3.32979 11.5279L4.22955 8.55383C4.26829 8.42579 4.28765 8.36177 4.28329 8.30045C4.27944 8.24628 4.26241 8.19387 4.23369 8.14778C4.20117 8.09561 4.14787 8.0552 4.04128 7.97439L1.56525 6.0972C1.19072 5.81325 1.00345 5.67127 0.980204 5.54375C0.960081 5.43338 0.996825 5.3203 1.07798 5.24284C1.17174 5.15334 1.40669 5.14855 1.87659 5.13897L4.98313 5.07567C5.11687 5.07294 5.18374 5.07158 5.24071 5.04848C5.29104 5.02808 5.33562 4.99569 5.37058 4.95413C5.41015 4.90708 5.43211 4.8439 5.47603 4.71755L6.49621 1.78263Z" fill="#EBE100" stroke="#EBE100" stroke-width="1.33333" stroke-linecap="round" stroke-linejoin="round"/>
</svg>
