<svg width="18" height="16" viewBox="0 0 18 16" fill="none" xmlns="http://www.w3.org/2000/svg">
<path d="M15.89 3.01197C16.698 2.51597 17.233 1.83897 17.495 0.977975C16.7571 1.37708 15.9651 1.6671 15.144 1.83897C14.441 1.08297 13.551 0.698975 12.484 0.698975C11.441 0.698975 10.56 1.06497 9.84099 1.77697C9.49377 2.11508 9.21924 2.52052 9.03422 2.96846C8.8492 3.41639 8.75758 3.89739 8.76499 4.38197C8.76499 4.69097 8.80399 4.96697 8.88199 5.20097C5.80599 5.09597 3.25999 3.81997 1.25399 1.36397C0.913993 1.96497 0.743993 2.57697 0.743993 3.20997C0.743993 4.51097 1.29299 5.54197 2.38899 6.29897C1.76399 6.24597 1.21299 6.08798 0.743993 5.82898C0.743993 6.75798 1.01699 7.53397 1.56399 8.21697C2.09535 8.88251 2.84417 9.33959 3.67899 9.50797C3.36699 9.58797 3.03799 9.62597 2.69999 9.62597C2.38799 9.62597 2.16699 9.59997 2.03599 9.54297C2.26599 10.3 2.69999 10.914 3.32699 11.384C3.94683 11.8546 4.70081 12.1149 5.47899 12.127C4.14699 13.172 2.62399 13.689 0.900993 13.689C0.478993 13.689 0.179993 13.683 -0.00100708 13.651C1.69599 14.753 3.58499 15.3 5.67499 15.3C7.81399 15.3 9.70399 14.758 11.349 13.674C12.994 12.596 14.208 11.266 14.988 9.69997C15.7593 8.18468 16.161 6.50829 16.16 4.80797V4.33997C16.879 3.8099 17.5014 3.16009 18 2.41897C17.3266 2.71084 16.6168 2.91031 15.89 3.01197Z" fill="#1B1B1B"/>
</svg>
