<svg width="18" height="14" viewBox="0 0 18 14" fill="none" xmlns="http://www.w3.org/2000/svg">
<path d="M17.8819 3.2309C17.8819 1.64887 16.7182 0.376211 15.2803 0.376211C13.3327 0.285156 11.3463 0.25 9.31641 0.25H8.68359C6.65859 0.25 4.66875 0.285156 2.72109 0.376562C1.28672 0.376562 0.123047 1.65625 0.123047 3.23828C0.0351564 4.48949 -0.00210921 5.74105 1.64902e-07 6.99262C-0.00351546 8.24418 0.0363283 9.49691 0.119531 10.7508C0.119531 12.3329 1.2832 13.6161 2.71758 13.6161C4.76367 13.711 6.8625 13.7532 8.99648 13.7496C11.134 13.7567 13.227 13.7121 15.2754 13.6161C16.7133 13.6161 17.877 12.3329 17.877 10.7508C17.9613 9.49574 18 8.24418 17.9965 6.9891C18.0045 5.73754 17.9662 4.4848 17.8819 3.2309ZM7.27734 10.4414V3.53324L12.375 6.98559L7.27734 10.4414Z" fill="#1B1B1B"/>
</svg>
